HIERARCHY
ROOT hip
{
  OFFSET 0 0 0
  CHANNELS 6 Xposition Yposition Zposition Zrotation Yrotation Xrotation
  JOINT abdomen
  {
    OFFSET 0 20.6881 -0.73152
    CHANNELS 3 Zrotation Xrotation Yrotation
    JOINT chest
    {
      OFFSET 0 11.7043 -0.48768
      CHANNELS 3 Zrotation Xrotation Yrotation
      JOINT neck
      {
        OFFSET 0 22.1894 -2.19456
        CHANNELS 3 Zrotation Xrotation Yrotation
        JOINT head
        {
          OFFSET -0.24384 7.07133 1.2192
          CHANNELS 3 Zrotation Xrotation Yrotation
          JOINT leftEye
          {
            OFFSET 4.14528 8.04674 8.04672
            CHANNELS 3 Zrotation Xrotation Yrotation
            End Site
            {
              OFFSET 1 0 0
            }
          }
          JOINT rightEye
          {
            OFFSET -3.6576 8.04674 8.04672
            CHANNELS 3 Zrotation Xrotation Yrotation
            End Site
            {
              OFFSET 1 0 0
            }
          }
        }
      }
      JOINT rCollar
      {
        OFFSET -2.68224 19.2634 -4.8768
        CHANNELS 3 Zrotation Xrotation Yrotation
        JOINT rShldr
        {
          OFFSET -8.77824 -1.95073 1.46304
          CHANNELS 3 Zrotation Xrotation Yrotation
          JOINT rForeArm
          {
            OFFSET -28.1742 -1.7115 0.48768
            CHANNELS 3 Zrotation Xrotation Yrotation
            JOINT rHand
            {
              OFFSET -22.5879 0.773209 7.07136
              CHANNELS 3 Zrotation Xrotation Yrotation
              JOINT rThumb1
              {
                OFFSET -1.2192 -0.487915 3.41376
                CHANNELS 3 Zrotation Xrotation Yrotation
                JOINT rThumb2
                {
                  OFFSET -3.37035 -0.52449 3.41376
                  CHANNELS 3 Zrotation Xrotation Yrotation
                  End Site
                  {
                    OFFSET -1.78271 -1.18214 1.43049
                  }
                }
              }
              JOINT rIndex1
              {
                OFFSET -7.75947 0.938293 5.60832
                CHANNELS 3 Zrotation Xrotation Yrotation
                JOINT rIndex2
                {
                  OFFSET -2.54057 -0.884171 1.56538
                  CHANNELS 3 Zrotation Xrotation Yrotation
                  End Site
                  {
                    OFFSET -1.62519 -0.234802 1.16502
                  }
                }
              }
              JOINT rMid1
              {
                OFFSET -8.24714 1.18213 3.41376
                CHANNELS 3 Zrotation Xrotation Yrotation
                JOINT rMid2
                {
                  OFFSET -3.10165 -0.590103 1.0647
                  CHANNELS 3 Zrotation Xrotation Yrotation
                  End Site
                  {
                    OFFSET -2.48547 -0.328903 0.83742
                  }
                }
              }
              JOINT rRing1
              {
                OFFSET -8.82822 0.546677 1.51678
                CHANNELS 3 Zrotation Xrotation Yrotation
                JOINT rRing2
                {
                  OFFSET -2.60934 -0.819778 -0.0198488
                  CHANNELS 3 Zrotation Xrotation Yrotation
                  End Site
                  {
                    OFFSET -2.33842 -0.294052 0.168128
                  }
                }
              }
              JOINT rPinky1
              {
                OFFSET -8.27202 -0.0477905 -0.4584
                CHANNELS 3 Zrotation Xrotation Yrotation
                JOINT rPinky2
                {
                  OFFSET -1.82734 -0.647385 -0.700984
                  CHANNELS 3 Zrotation Xrotation Yrotation
                  End Site
                  {
                    OFFSET -1.69225 -0.51767 -0.607171
                  }
                }
              }
            }
          }
        }
      }
      JOINT lCollar
      {
        OFFSET 2.68224 19.2634 -4.8768
        CHANNELS 3 Zrotation Xrotation Yrotation
        JOINT lShldr
        {
          OFFSET 8.77824 -1.95073 1.46304
          CHANNELS 3 Zrotation Xrotation Yrotation
          JOINT lForeArm
          {
            OFFSET 28.1742 -1.7115 0.48768
            CHANNELS 3 Zrotation Xrotation Yrotation
            JOINT lHand
            {
              OFFSET 22.5879 0.773209 7.07136
              CHANNELS 3 Zrotation Xrotation Yrotation
              JOINT lThumb1
              {
                OFFSET 1.2192 -0.487915 3.41376
                CHANNELS 3 Zrotation Xrotation Yrotation
                JOINT lThumb2
                {
                  OFFSET 3.37035 -0.52449 3.41376
                  CHANNELS 3 Zrotation Xrotation Yrotation
                  End Site
                  {
                    OFFSET 1.78271 -1.18214 1.43049
                  }
                }
              }
              JOINT lIndex1
              {
                OFFSET 7.75947 0.938293 5.60832
                CHANNELS 3 Zrotation Xrotation Yrotation
                JOINT lIndex2
                {
                  OFFSET 2.54057 -0.884171 1.56538
                  CHANNELS 3 Zrotation Xrotation Yrotation
                  End Site
                  {
                    OFFSET 1.62519 -0.234802 1.16502
                  }
                }
              }
              JOINT lMid1
              {
                OFFSET 8.24714 1.18213 3.41376
                CHANNELS 3 Zrotation Xrotation Yrotation
                JOINT lMid2
                {
                  OFFSET 3.10165 -0.590103 1.0647
                  CHANNELS 3 Zrotation Xrotation Yrotation
                  End Site
                  {
                    OFFSET 2.48547 -0.328903 0.83742
                  }
                }
              }
              JOINT lRing1
              {
                OFFSET 8.82822 0.546677 1.51678
                CHANNELS 3 Zrotation Xrotation Yrotation
                JOINT lRing2
                {
                  OFFSET 2.60934 -0.819778 -0.0198488
                  CHANNELS 3 Zrotation Xrotation Yrotation
                  End Site
                  {
                    OFFSET 2.33842 -0.294052 0.168128
                  }
                }
              }
              JOINT lPinky1
              {
                OFFSET 8.27202 -0.0477905 -0.4584
                CHANNELS 3 Zrotation Xrotation Yrotation
                JOINT lPinky2
                {
                  OFFSET 1.82734 -0.647385 -0.700984
                  CHANNELS 3 Zrotation Xrotation Yrotation
                  End Site
                  {
                    OFFSET 1.69225 -0.51767 -0.607171
                  }
                }
              }
            }
          }
        }
      }
    }
  }
  JOINT rButtock
  {
    OFFSET -8.77824 4.35084 1.2192
    CHANNELS 3 Zrotation Xrotation Yrotation
    JOINT rThigh
    {
      OFFSET 0 -1.70687 -2.19456
      CHANNELS 3 Zrotation Xrotation Yrotation
      JOINT rShin
      {
        OFFSET 0 -36.8199 0.73152
        CHANNELS 3 Zrotation Xrotation Yrotation
        JOINT rFoot
        {
          OFFSET 0.73152 -45.1104 -5.12064
          CHANNELS 3 Zrotation Xrotation Yrotation
          End Site
          {
            OFFSET -1.1221 -3.69964 12.103
          }
        }
      }
    }
  }
  JOINT lButtock
  {
    OFFSET 8.77824 4.35084 1.2192
    CHANNELS 3 Zrotation Xrotation Yrotation
    JOINT lThigh
    {
      OFFSET 0 -1.70687 -2.19456
      CHANNELS 3 Zrotation Xrotation Yrotation
      JOINT lShin
      {
        OFFSET 0 -36.8199 0.73152
        CHANNELS 3 Zrotation Xrotation Yrotation
        JOINT lFoot
        {
          OFFSET -0.73152 -45.1104 -5.12064
          CHANNELS 3 Zrotation Xrotation Yrotation
          End Site
          {
            OFFSET 1.1221 -3.69964 12.103
          }
        }
      }
    }
  }
}
MOTION
Frames:	5
Frame Time:	0.03333
0.0 0.0 0.0 0.0 0.0 0.0 0.0 0.0 0.0 0.0 0.0 0.0 0.0 0.0 0.0 0.0 0.0 0.0 0.0 0.0 0.0 0.0 0.0 0.0 0.0 0.0 0.0 0.0 0.0 0.0 0.0 0.0 0.0 0.0 0.0 0.0 0.0 0.0 0.0 0.0 0.0 0.0 0.0 0.0 0.0 0.0 0.0 0.0 0.0 0.0 0.0 0.0 0.0 0.0 0.0 0.0 0.0 0.0 0.0 0.0 0.0 0.0 0.0 0.0 0.0 0.0 0.0 0.0 0.0 0.0 0.0 0.0 0.0 0.0 0.0 0.0 0.0 0.0 0.0 0.0 0.0 0.0 0.0 0.0 0.0 0.0 0.0 0.0 0.0 0.0 0.0 0.0 0.0 0.0 0.0 0.0 0.0 0.0 0.0 0.0 0.0 0.0 0.0 0.0 0.0 0.0 0.0 0.0 0.0 0.0 0.0 0.0 0.0 0.0 0.0 0.0 0.0 0.0 0.0 0.0 0.0 0.0 0.0 0.0 0.0 0.0 0.0 0.0 0.0 0.0 0.0 0.0
-0.1671 51.615 -0.0346 -165.314678 -64.179776 168.018607 -0.261384 6.929601 -176.151266 -0.02168 7.430081 -164.070632 -7.516195 31.593232 -130.79675 20.556813 39.12895 153.80538 0.00064 -0.0 -0.002455 0.001242 0.0 0.002871 -1.885735 9.992972 2.399582 -108.905789 -11.994646 170.149052 -73.17415 45.906347 -93.736478 -161.152829 -12.706838 153.064131 -167.338257 -5.013255 89.822309 -170.559835 -9.301953 87.806235 28.50225 -48.511257 -4.458533 -169.389556 -32.158441 110.328685 -13.569815 30.165052 9.746528 -22.971737 47.395554 18.835945 -0.001136 -0.00017 -0.000907 -156.369901 -20.85253 174.297322 -162.827695 73.021898 -150.778821 -79.309174 -53.328345 -77.965483 152.538629 12.345586 -158.047467 -108.470006 69.302837 147.110196 -156.677487 -30.982275 -39.520324 -161.490427 -22.176407 -145.523989 28.018448 23.367156 -9.96264 8.972326 5.248279 -20.702598 8.921323 12.960338 -5.695297 159.886932 -9.044531 -110.135544 149.479381 22.006052 -136.034582 2.298197 15.098877 -3.110345 145.116993 2.729301 179.98645 153.591756 -18.621469 176.530055 165.04474 76.81424 149.907256 0.380036 -4.464137 2.808247 0.00099 -0.000193 5e-06 -29.479778 -29.920296 -133.815917 -89.560756 -3.815447 -172.170032 -68.592463 -30.614523 -134.435042 179.991257 75.749835 0.007565 -137.505649 4.376209 83.836027 83.925301 13.374593 136.610612 150.516058 5.421836 -142.841877
-0.2512 51.572700000000005 -0.055 -165.38443 -64.168058 168.108086 -0.213333 11.663834 -5.278308 1.597235 -12.052437 25.231516 -11.638942 25.417335 -87.293461 35.341379 19.991451 110.910113 0.002303 0.0 0.000401 0.002303 0.0 0.000401 -6.873209 27.997826 8.160201 -122.64644 -31.263193 151.452682 -175.515955 -1.212519 -67.263014 -18.048123 -53.903852 -15.58834 172.858044 -23.907248 87.752185 -25.33014 -39.151216 -6.419578 165.604932 -67.715731 107.035314 41.017366 -42.824268 -4.051585 58.316286 -78.75718 30.518392 1.963408 3.078634 0.595012 0.00553 0.996798 0.313006 -156.340519 -48.298661 177.875599 -152.445145 38.288116 -147.756228 -172.41439 71.48523 -142.796376 112.803478 63.606849 -116.296152 -103.894422 -41.825623 -133.205024 -12.005255 -42.794899 -94.923523 13.629083 55.973232 -7.354424 178.180121 -15.739457 -89.518402 17.82268 -44.701262 0.669803 152.087298 -18.521319 -121.362666 -5.048861 12.449675 7.535007 114.420163 55.372516 -104.756193 51.863272 61.252378 -45.535016 144.829552 11.624356 -177.175202 147.895367 -46.620703 169.402183 158.231273 60.430663 150.806056 12.160591 -26.217698 13.465124 179.659344 75.749181 0.26644 147.024162 36.782874 -138.798088 -90.508242 -59.126853 8.517884 69.558447 29.398639 37.965964 0.003933 -0.000346 0.002383 71.677706 -42.858415 -85.143991 -81.846797 -59.182127 -140.058188 -99.70138 -39.112334 158.93583
-0.3339 51.5323 -0.07680000000000001 -165.408745 -64.162139 168.145713 -0.380513 11.662712 -0.868185 0.84094 -12.133302 20.729317 9.716066 21.739764 88.959853 -30.16692 -0.992631 -62.474608 0.000162 0.0 0.002688 -0.000442 0.0 -0.002636 -157.513344 -19.27093 164.941222 -51.395394 -47.672496 -10.136568 8.226845 68.587039 -152.728108 -130.711601 38.372006 117.487217 133.429995 -46.255288 68.4374 -68.051641 24.707388 19.12818 -45.182111 39.325108 35.410882 -12.747431 25.471878 5.785369 1.291687 -3.833915 -0.6842 155.856984 -71.18649 123.023979 -0.004617 -0.443709 -0.139595 -113.533895 75.198826 127.224768 -154.390745 46.001608 -149.046391 -24.817626 -39.331154 -25.543168 -3.543579 -30.298372 5.88889 92.079032 41.142477 -158.158427 -62.943208 3.900718 147.274733 -174.451749 15.967735 -152.213481 -169.6572 -26.574196 -86.817586 -34.485311 -75.271405 -21.347036 136.882247 7.272092 -113.84511 -151.401623 -63.552763 -94.157865 -4.033153 -12.372434 1.913886 154.537497 19.115953 -138.980177 145.121734 1.485911 179.594959 -12.01783 41.121097 4.310271 146.395896 16.029701 142.894807 126.389316 -29.992514 123.849945 0.00347 -0.000384 0.003486 -30.265358 -30.126884 -166.836711 -91.786213 -49.473567 -1.024327 86.707308 44.656729 24.92969 -179.95472 75.750022 -0.036005 -135.180914 4.191802 -88.422222 -74.353853 -2.211887 67.636837 42.793865 11.486072 -0.860563
-0.4166 51.4925 -0.09870000000000001 -165.396456 -64.164045 168.15016 -0.175679 11.64281 -5.137861 1.570113 -12.038317 25.027407 8.834191 19.472708 75.55948 -26.835328 -8.056406 -50.629182 0.002805 -0.0 -0.004418 -0.002273 -0.0 0.001621 -153.728952 -75.518806 -178.433211 -67.465481 -38.481145 -66.272407 1.654448 40.289919 -146.519143 -134.246538 35.697549 121.384393 -173.899654 -11.56903 89.886071 -32.948187 -28.994418 2.895469 -1.846074 2.934978 1.07562 5.328275 8.224358 1.084849 -7.733991 19.466342 5.130464 11.915513 -26.323188 -1.527764 0.002396 2.372458 0.74515 7.866415 22.456026 3.25257 -155.192054 49.151773 -149.513173 -0.648558 -5.609182 -3.625161 4.118171 19.222843 -5.046885 -84.800148 -22.17095 -58.069674 13.24122 -10.740281 -85.879238 4.011045 34.186162 -3.667416 -171.345845 -25.184661 -87.331517 100.735334 21.452775 -42.736988 149.735493 -14.164379 -120.569811 110.130856 50.401879 -88.775864 -100.80731 -81.566169 -71.088576 170.302674 -25.453772 -144.08812 0.025248 -1.981943 0.621932 -10.836373 -5.324783 0.727047 -20.358423 69.684209 -13.047112 47.010238 -51.092365 46.313674 0.00208 0.001485 0.000831 -30.989275 -27.876334 17.576667 84.688723 32.477065 -19.178213 -59.546657 62.837136 -44.942899 -179.974909 75.750487 -0.020792 -135.181599 3.820624 -104.375774 -80.270628 -22.852671 -3.870311 147.755961 -18.990095 -110.393878
